<mxfile host="app.diagrams.net" modified="2023-06-28T14:51:18.508Z" agent="Mozilla/5.0 (Windows NT 10.0; Win64; x64) AppleWebKit/537.36 (KHTML, like Gecko) Chrome/114.0.0.0 Safari/537.36" etag="JQuBd53XIt9PAorwar9A" version="21.3.7" type="device">
  <diagram name="Page-1" id="ll-uYg1mY_r5_Kt2LNJf">
    <mxGraphModel dx="1500" dy="784" grid="1" gridSize="10" guides="1" tooltips="1" connect="1" arrows="1" fold="1" page="1" pageScale="1" pageWidth="850" pageHeight="1100" math="0" shadow="0">
      <root>
        <mxCell id="0" />
        <mxCell id="1" parent="0" />
        <mxCell id="j6YbdHBnpik6pXmSsH-U-1" value="&lt;b&gt;User Interaction&lt;/b&gt;" style="whiteSpace=wrap;html=1;aspect=fixed;" vertex="1" parent="1">
          <mxGeometry x="200" y="40" width="120" height="120" as="geometry" />
        </mxCell>
        <mxCell id="j6YbdHBnpik6pXmSsH-U-2" value="" style="shape=flexArrow;endArrow=classic;html=1;rounded=0;exitX=0.5;exitY=1;exitDx=0;exitDy=0;" edge="1" parent="1" source="j6YbdHBnpik6pXmSsH-U-1">
          <mxGeometry width="50" height="50" relative="1" as="geometry">
            <mxPoint x="400" y="310" as="sourcePoint" />
            <mxPoint x="260" y="250" as="targetPoint" />
          </mxGeometry>
        </mxCell>
        <mxCell id="j6YbdHBnpik6pXmSsH-U-3" value="&lt;b&gt;Data Lake&lt;/b&gt;" style="shape=cylinder3;whiteSpace=wrap;html=1;boundedLbl=1;backgroundOutline=1;size=15;" vertex="1" parent="1">
          <mxGeometry x="210" y="250" width="100" height="120" as="geometry" />
        </mxCell>
        <mxCell id="j6YbdHBnpik6pXmSsH-U-4" value="&lt;font style=&quot;font-size: 14px;&quot;&gt;Log data / BackLog (Raw data)&lt;/font&gt;" style="text;html=1;strokeColor=none;fillColor=none;align=center;verticalAlign=middle;whiteSpace=wrap;rounded=0;fontStyle=1" vertex="1" parent="1">
          <mxGeometry x="280" y="190" width="210" height="30" as="geometry" />
        </mxCell>
        <mxCell id="j6YbdHBnpik6pXmSsH-U-5" value="&lt;font style=&quot;font-size: 14px;&quot;&gt;CassandraDB&lt;/font&gt;" style="text;html=1;strokeColor=none;fillColor=none;align=center;verticalAlign=middle;whiteSpace=wrap;rounded=0;fontStyle=1" vertex="1" parent="1">
          <mxGeometry x="320" y="300" width="130" height="30" as="geometry" />
        </mxCell>
        <mxCell id="j6YbdHBnpik6pXmSsH-U-6" value="" style="shape=flexArrow;endArrow=classic;html=1;rounded=0;exitX=0.5;exitY=1;exitDx=0;exitDy=0;" edge="1" parent="1">
          <mxGeometry width="50" height="50" relative="1" as="geometry">
            <mxPoint x="259.58" y="370" as="sourcePoint" />
            <mxPoint x="260" y="480" as="targetPoint" />
          </mxGeometry>
        </mxCell>
        <mxCell id="j6YbdHBnpik6pXmSsH-U-7" value="&lt;b&gt;Data Warehouse&lt;/b&gt;" style="shape=cylinder3;whiteSpace=wrap;html=1;boundedLbl=1;backgroundOutline=1;size=15;" vertex="1" parent="1">
          <mxGeometry x="210" y="480" width="100" height="120" as="geometry" />
        </mxCell>
        <mxCell id="j6YbdHBnpik6pXmSsH-U-8" value="&lt;font style=&quot;font-size: 14px;&quot;&gt;ETL ( Spark )&lt;/font&gt;" style="text;html=1;strokeColor=none;fillColor=none;align=center;verticalAlign=middle;whiteSpace=wrap;rounded=0;fontStyle=1" vertex="1" parent="1">
          <mxGeometry x="280" y="400" width="130" height="30" as="geometry" />
        </mxCell>
        <mxCell id="j6YbdHBnpik6pXmSsH-U-9" value="&lt;font style=&quot;font-size: 14px;&quot;&gt;MySQL&lt;/font&gt;" style="text;html=1;strokeColor=none;fillColor=none;align=center;verticalAlign=middle;whiteSpace=wrap;rounded=0;fontStyle=1" vertex="1" parent="1">
          <mxGeometry x="330" y="535" width="110" height="30" as="geometry" />
        </mxCell>
        <mxCell id="j6YbdHBnpik6pXmSsH-U-10" value="" style="endArrow=none;dashed=1;html=1;rounded=0;" edge="1" parent="1">
          <mxGeometry width="50" height="50" relative="1" as="geometry">
            <mxPoint x="80" y="640" as="sourcePoint" />
            <mxPoint x="80" y="240" as="targetPoint" />
          </mxGeometry>
        </mxCell>
        <mxCell id="j6YbdHBnpik6pXmSsH-U-11" value="" style="endArrow=none;dashed=1;html=1;rounded=0;" edge="1" parent="1">
          <mxGeometry width="50" height="50" relative="1" as="geometry">
            <mxPoint x="520" y="640" as="sourcePoint" />
            <mxPoint x="520" y="240" as="targetPoint" />
          </mxGeometry>
        </mxCell>
        <mxCell id="j6YbdHBnpik6pXmSsH-U-12" value="" style="endArrow=none;dashed=1;html=1;rounded=0;" edge="1" parent="1">
          <mxGeometry width="50" height="50" relative="1" as="geometry">
            <mxPoint x="80" y="640" as="sourcePoint" />
            <mxPoint x="520" y="640" as="targetPoint" />
          </mxGeometry>
        </mxCell>
        <mxCell id="j6YbdHBnpik6pXmSsH-U-13" value="" style="endArrow=none;dashed=1;html=1;dashPattern=1 3;strokeWidth=2;rounded=0;" edge="1" parent="1">
          <mxGeometry width="50" height="50" relative="1" as="geometry">
            <mxPoint x="80" y="240" as="sourcePoint" />
            <mxPoint x="530" y="240" as="targetPoint" />
          </mxGeometry>
        </mxCell>
        <mxCell id="j6YbdHBnpik6pXmSsH-U-14" value="&lt;font style=&quot;font-size: 18px;&quot;&gt;Docker&lt;/font&gt;" style="text;html=1;strokeColor=none;fillColor=none;align=center;verticalAlign=middle;whiteSpace=wrap;rounded=0;" vertex="1" parent="1">
          <mxGeometry x="530" y="410" width="60" height="30" as="geometry" />
        </mxCell>
      </root>
    </mxGraphModel>
  </diagram>
</mxfile>
